<svg width="52" height="52" viewBox="0 0 52 52" fill="none" xmlns="http://www.w3.org/2000/svg">
<circle cx="26" cy="26" r="26" fill="#E1E6EE"/>
<path d="M25.1094 26.4336C25.1094 27.8164 25 29.0508 24.7812 30.1367C24.5703 31.2227 24.2266 32.1445 23.75 32.9023C23.2812 33.6602 22.6641 34.2383 21.8984 34.6367C21.1328 35.0352 20.2031 35.2344 19.1094 35.2344C17.7344 35.2344 16.6055 34.8867 15.7227 34.1914C14.8398 33.4883 14.1875 32.4805 13.7656 31.168C13.3438 29.8477 13.1328 28.2695 13.1328 26.4336C13.1328 24.582 13.3242 23 13.707 21.6875C14.0977 20.3672 14.7305 19.3555 15.6055 18.6523C16.4805 17.9492 17.6484 17.5977 19.1094 17.5977C20.4766 17.5977 21.6016 17.9492 22.4844 18.6523C23.375 19.3477 24.0352 20.3555 24.4648 21.6758C24.8945 22.9883 25.1094 24.5742 25.1094 26.4336ZM16.7305 26.4336C16.7305 27.7383 16.8008 28.8281 16.9414 29.7031C17.0898 30.5703 17.3359 31.2227 17.6797 31.6602C18.0234 32.0977 18.5 32.3164 19.1094 32.3164C19.7109 32.3164 20.1836 32.1016 20.5273 31.6719C20.8789 31.2344 21.1289 30.582 21.2773 29.7148C21.4258 28.8398 21.5 27.7461 21.5 26.4336C21.5 25.1289 21.4258 24.0391 21.2773 23.1641C21.1289 22.2891 20.8789 21.6328 20.5273 21.1953C20.1836 20.75 19.7109 20.5273 19.1094 20.5273C18.5 20.5273 18.0234 20.75 17.6797 21.1953C17.3359 21.6328 17.0898 22.2891 16.9414 23.1641C16.8008 24.0391 16.7305 25.1289 16.7305 26.4336ZM38.9375 35H26.9609V32.4805L31.2617 28.1328C32.1289 27.2422 32.8242 26.5 33.3477 25.9062C33.8789 25.3047 34.2617 24.7578 34.4961 24.2656C34.7383 23.7734 34.8594 23.2461 34.8594 22.6836C34.8594 22.0039 34.668 21.4961 34.2852 21.1602C33.9102 20.8164 33.4062 20.6445 32.7734 20.6445C32.1094 20.6445 31.4648 20.7969 30.8398 21.1016C30.2148 21.4062 29.5625 21.8398 28.8828 22.4023L26.9141 20.0703C27.4062 19.6484 27.9258 19.25 28.4727 18.875C29.0273 18.5 29.668 18.1992 30.3945 17.9727C31.1289 17.7383 32.0078 17.6211 33.0312 17.6211C34.1562 17.6211 35.1211 17.8242 35.9258 18.2305C36.7383 18.6367 37.3633 19.1914 37.8008 19.8945C38.2383 20.5898 38.457 21.3789 38.457 22.2617C38.457 23.207 38.2695 24.0703 37.8945 24.8516C37.5195 25.6328 36.9727 26.4062 36.2539 27.1719C35.543 27.9375 34.6836 28.7852 33.6758 29.7148L31.4727 31.7891V31.9531H38.9375V35Z" fill="#506278"/>
</svg>
