<svg width="52" height="52" viewBox="0 0 52 52" fill="none" xmlns="http://www.w3.org/2000/svg">
<circle cx="26" cy="26" r="26" fill="#E1E6EE"/>
<path d="M25.1094 26.4336C25.1094 27.8164 25 29.0508 24.7812 30.1367C24.5703 31.2227 24.2266 32.1445 23.75 32.9023C23.2812 33.6602 22.6641 34.2383 21.8984 34.6367C21.1328 35.0352 20.2031 35.2344 19.1094 35.2344C17.7344 35.2344 16.6055 34.8867 15.7227 34.1914C14.8398 33.4883 14.1875 32.4805 13.7656 31.168C13.3438 29.8477 13.1328 28.2695 13.1328 26.4336C13.1328 24.582 13.3242 23 13.707 21.6875C14.0977 20.3672 14.7305 19.3555 15.6055 18.6523C16.4805 17.9492 17.6484 17.5977 19.1094 17.5977C20.4766 17.5977 21.6016 17.9492 22.4844 18.6523C23.375 19.3477 24.0352 20.3555 24.4648 21.6758C24.8945 22.9883 25.1094 24.5742 25.1094 26.4336ZM16.7305 26.4336C16.7305 27.7383 16.8008 28.8281 16.9414 29.7031C17.0898 30.5703 17.3359 31.2227 17.6797 31.6602C18.0234 32.0977 18.5 32.3164 19.1094 32.3164C19.7109 32.3164 20.1836 32.1016 20.5273 31.6719C20.8789 31.2344 21.1289 30.582 21.2773 29.7148C21.4258 28.8398 21.5 27.7461 21.5 26.4336C21.5 25.1289 21.4258 24.0391 21.2773 23.1641C21.1289 22.2891 20.8789 21.6328 20.5273 21.1953C20.1836 20.75 19.7109 20.5273 19.1094 20.5273C18.5 20.5273 18.0234 20.75 17.6797 21.1953C17.3359 21.6328 17.0898 22.2891 16.9414 23.1641C16.8008 24.0391 16.7305 25.1289 16.7305 26.4336ZM35.9141 35H32.293V25.0859C32.293 24.8125 32.2969 24.4766 32.3047 24.0781C32.3125 23.6719 32.3242 23.2578 32.3398 22.8359C32.3555 22.4062 32.3711 22.0195 32.3867 21.6758C32.3008 21.7773 32.125 21.9531 31.8594 22.2031C31.6016 22.4453 31.3594 22.6641 31.1328 22.8594L29.1641 24.4414L27.418 22.2617L32.9375 17.8672H35.9141V35Z" fill="#506278"/>
</svg>
