<?xml version="1.0" encoding="UTF-8"?> <svg xmlns="http://www.w3.org/2000/svg" width="37" height="34" viewBox="0 0 37 34" fill="none"><rect width="37" height="34" rx="4" fill="#E1E6EE"></rect><g clip-path="url(#clip0_239_361)"><path d="M14.6836 26.5189C14.6836 26.5189 15.8729 11.0264 21.8821 4C21.8821 4 19.8321 18.8195 17.7038 27.1605C15.5599 35.5014 14.6836 26.5189 14.6836 26.5189Z" fill="#506278"></path><path d="M20.4432 24.1089C20.4432 24.1089 23.7138 15.0482 26.8436 9.77447C29.9734 4.50079 22.947 24.7192 20.9439 27.9743C18.9409 31.2291 20.4432 24.1089 20.4432 24.1089Z" fill="#506278"></path><path d="M12.9157 24.1089C12.9157 24.1089 14.0424 11.8714 12.1645 7.99045C10.2867 4.12517 9.78591 23.702 11.163 27.9742C12.5401 32.2463 12.9157 24.1089 12.9157 24.1089Z" fill="#506278"></path><path d="M6.8915 15.7367C6.8915 15.7367 10.2091 22.0432 9.48923 25.3295C8.78502 28.6 4.13729 22.8413 6.8915 15.7367Z" fill="#506278"></path><path d="M24.9666 24.8443C24.9666 24.8443 28.1122 15.721 30.6159 15.7523C33.1197 15.7836 22.9636 32.0272 24.9666 24.8443Z" fill="#506278"></path></g><defs><clipPath id="clip0_239_361"><rect width="29.3" height="26.7336" fill="white" transform="translate(3 4)"></rect></clipPath></defs></svg> 