<svg width="52" height="52" viewBox="0 0 52 52" fill="none" xmlns="http://www.w3.org/2000/svg">
<circle cx="26" cy="26" r="26" fill="#E1E6EE"/>
<path d="M25.1094 26.4336C25.1094 27.8164 25 29.0508 24.7812 30.1367C24.5703 31.2227 24.2266 32.1445 23.75 32.9023C23.2812 33.6602 22.6641 34.2383 21.8984 34.6367C21.1328 35.0352 20.2031 35.2344 19.1094 35.2344C17.7344 35.2344 16.6055 34.8867 15.7227 34.1914C14.8398 33.4883 14.1875 32.4805 13.7656 31.168C13.3438 29.8477 13.1328 28.2695 13.1328 26.4336C13.1328 24.582 13.3242 23 13.707 21.6875C14.0977 20.3672 14.7305 19.3555 15.6055 18.6523C16.4805 17.9492 17.6484 17.5977 19.1094 17.5977C20.4766 17.5977 21.6016 17.9492 22.4844 18.6523C23.375 19.3477 24.0352 20.3555 24.4648 21.6758C24.8945 22.9883 25.1094 24.5742 25.1094 26.4336ZM16.7305 26.4336C16.7305 27.7383 16.8008 28.8281 16.9414 29.7031C17.0898 30.5703 17.3359 31.2227 17.6797 31.6602C18.0234 32.0977 18.5 32.3164 19.1094 32.3164C19.7109 32.3164 20.1836 32.1016 20.5273 31.6719C20.8789 31.2344 21.1289 30.582 21.2773 29.7148C21.4258 28.8398 21.5 27.7461 21.5 26.4336C21.5 25.1289 21.4258 24.0391 21.2773 23.1641C21.1289 22.2891 20.8789 21.6328 20.5273 21.1953C20.1836 20.75 19.7109 20.5273 19.1094 20.5273C18.5 20.5273 18.0234 20.75 17.6797 21.1953C17.3359 21.6328 17.0898 22.2891 16.9414 23.1641C16.8008 24.0391 16.7305 25.1289 16.7305 26.4336ZM38.2695 21.6992C38.2695 22.4883 38.1055 23.1719 37.7773 23.75C37.4492 24.3281 37.0039 24.8008 36.4414 25.168C35.8867 25.5352 35.2617 25.8047 34.5664 25.9766V26.0469C35.9414 26.2188 36.9844 26.6406 37.6953 27.3125C38.4141 27.9844 38.7734 28.8828 38.7734 30.0078C38.7734 31.0078 38.5273 31.9023 38.0352 32.6914C37.5508 33.4805 36.8008 34.1016 35.7852 34.5547C34.7695 35.0078 33.4609 35.2344 31.8594 35.2344C30.9141 35.2344 30.0312 35.1562 29.2109 35C28.3984 34.8516 27.6328 34.6211 26.9141 34.3086V31.2266C27.6484 31.6016 28.418 31.8867 29.2227 32.082C30.0273 32.2695 30.7773 32.3633 31.4727 32.3633C32.7695 32.3633 33.6758 32.1406 34.1914 31.6953C34.7148 31.2422 34.9766 30.6094 34.9766 29.7969C34.9766 29.3203 34.8555 28.918 34.6133 28.5898C34.3711 28.2617 33.9492 28.0117 33.3477 27.8398C32.7539 27.668 31.9219 27.582 30.8516 27.582H29.5508V24.8047H30.875C31.9297 24.8047 32.7305 24.707 33.2773 24.5117C33.832 24.3086 34.207 24.0352 34.4023 23.6914C34.6055 23.3398 34.707 22.9414 34.707 22.4961C34.707 21.8867 34.5195 21.4102 34.1445 21.0664C33.7695 20.7227 33.1445 20.5508 32.2695 20.5508C31.7227 20.5508 31.2227 20.6211 30.7695 20.7617C30.3242 20.8945 29.9219 21.0586 29.5625 21.2539C29.2031 21.4414 28.8867 21.625 28.6133 21.8047L26.9375 19.3086C27.6094 18.8242 28.3945 18.4219 29.293 18.1016C30.1992 17.7812 31.2773 17.6211 32.5273 17.6211C34.293 17.6211 35.6914 17.9766 36.7227 18.6875C37.7539 19.3984 38.2695 20.4023 38.2695 21.6992Z" fill="#506278"/>
</svg>
