<?xml version="1.0" encoding="UTF-8"?> <svg xmlns="http://www.w3.org/2000/svg" width="37" height="34" viewBox="0 0 37 34" fill="none"><rect width="37" height="34" rx="4" fill="#E1E6EE"></rect><g clip-path="url(#clip0_239_394)"><path d="M14.5175 14.5933C14.5175 14.5933 10.7956 7.74888 14.5175 6.73956C18.2394 5.73024 18.2394 12.6378 19.2487 13.3317C20.258 13.9941 25.5884 8.94745 26.9133 9.95679C28.2696 10.9661 32.1176 16.3597 28.8057 16.7066C25.4939 17.0536 20.5419 16.6751 21.4881 19.293C22.4344 21.9109 22.6867 25.6328 20.3526 25.5383C17.987 25.4436 16.063 21.7532 16.063 20.6493C16.063 19.5453 13.1928 23.8664 10.4487 23.6772C7.70456 23.5511 5.55975 17.369 14.5175 14.5933Z" fill="#506278"></path><path d="M19.6914 10.8084C19.6914 10.8084 20.2907 5.16249 21.8047 5.00478C23.2871 4.81553 21.5208 10.3037 19.6914 10.8084Z" fill="#506278"></path><path d="M14.5173 25.1596C12.4986 25.3804 16.2205 30.0171 17.1352 28.6922C18.0814 27.4306 15.8735 25.0334 14.5173 25.1596Z" fill="#506278"></path><path d="M10.4488 12.2277C10.4488 12.2277 4.58215 9.19976 5.02373 12.2277C5.43377 15.2872 9.12411 15.0349 10.4488 12.2277Z" fill="#506278"></path><path d="M24.8008 19.293C24.8008 19.293 27.1978 18.1259 26.6932 20.1446C26.1571 22.1948 24.8008 19.293 24.8008 19.293Z" fill="#506278"></path></g><defs><clipPath id="clip0_239_394"><rect width="25.1163" height="24" fill="white" transform="translate(5 5)"></rect></clipPath></defs></svg> 