<?xml version="1.0" encoding="UTF-8"?> <svg xmlns="http://www.w3.org/2000/svg" width="37" height="34" viewBox="0 0 37 34" fill="none"><rect width="37" height="34" rx="4" fill="#E1E6EE"></rect><g clip-path="url(#clip0_239_382)"><path d="M18.8056 5.15039C18.8056 5.15039 3.86159 9.76757 5.06947 15.617C6.27735 21.4663 12.3729 30.1625 16.3477 28.8312C20.3365 27.4856 11.2915 22.1462 11.2774 17.9539C11.2634 13.7616 18.4685 9.72508 20.4489 7.51565C22.4292 5.30619 18.8056 5.15039 18.8056 5.15039Z" fill="#506278"></path><path d="M22.8935 9.38512C22.8935 9.38512 12.9355 15.1212 15.1546 17.9538C17.3737 20.7864 19.4524 26.9333 21.0676 23.8032C22.6828 20.6731 18.076 19.9083 20.3232 16.7783C22.5564 13.6482 27.7389 9.14434 22.8935 9.38512Z" fill="#506278"></path><path d="M28.2027 11.8495C28.2027 11.8495 22.3458 14.6397 23.7784 16.9341C25.2111 19.2285 27.4301 22.3586 28.5397 19.0161C29.6493 15.6736 31.6437 9.58342 28.2027 11.8495Z" fill="#506278"></path><path d="M29.311 6.21259C29.311 6.21259 26.7968 7.06238 27.1902 8.15293C27.5834 9.2435 29.6058 11.1838 30.9262 9.69672C32.2604 8.19543 32.9486 5.32031 29.311 6.21259Z" fill="#506278"></path></g><defs><clipPath id="clip0_239_382"><rect width="27" height="24" fill="white" transform="translate(5 5)"></rect></clipPath></defs></svg> 