<svg width="95" height="95" viewBox="0 0 95 95" fill="none" xmlns="http://www.w3.org/2000/svg">
<g clip-path="url(#clip0_239_629)">
<path d="M47.71 6.65806C47.595 6.26223 47.4328 5.83085 46.8944 5.83473C46.4152 5.83473 46.2055 6.18694 46.2055 6.51944C46.2055 6.97441 46.5064 7.18444 46.9972 7.43777L47.0172 7.44973C47.5 7.69498 48.0739 7.98806 48.0777 8.67277C48.0777 9.32582 47.5278 9.84832 46.7002 9.85219C46.4938 9.85114 46.2886 9.82056 46.0908 9.7614C45.9364 9.70582 45.8414 9.6622 45.7861 9.63053C45.7344 9.49998 45.6514 8.96553 45.6158 8.6689L45.7939 8.62527C45.8969 9.00527 46.1781 9.63053 46.8149 9.63053C47.2822 9.63053 47.5594 9.33777 47.5594 8.88248C47.5594 8.42332 47.215 8.20553 46.7481 7.96027L46.7125 7.94024C46.3125 7.73053 45.7228 7.41774 45.7189 6.73723C45.7189 6.13944 46.1939 5.6289 46.9972 5.62469C47.2822 5.62469 47.5433 5.69223 47.7811 5.76332C47.8047 5.96527 47.8325 6.17886 47.8761 6.50328L47.8919 6.62219L47.7097 6.66194L47.71 6.65806ZM44.4878 9.84444C44.5194 9.64636 44.5786 9.05277 44.5905 8.84274H44.4005C44.3491 9.09607 44.2583 9.31774 44.1672 9.45668C44.0483 9.63441 43.8822 9.70194 43.415 9.75719C43.1064 9.79274 42.8883 9.81277 42.7619 9.75332C42.643 9.68611 42.5874 9.55944 42.5561 9.27024L42.4214 8.10277L43.0072 8.03556C43.5455 7.97191 43.593 8.0039 43.7239 8.43915L43.9016 8.41944L43.7633 7.23194L43.5853 7.25165C43.5536 7.67495 43.5297 7.72665 42.9716 7.79386L42.39 7.8614L42.2275 6.45998C42.2036 6.27386 42.2155 6.26223 42.4094 6.23832L42.8766 6.18306C43.32 6.13136 43.4941 6.15527 43.593 6.27386C43.688 6.40053 43.7675 6.53107 43.8502 6.78053L44.0247 6.72915C44.0086 6.63803 43.9892 6.53527 43.973 6.43219C43.9294 6.19082 43.8858 5.95332 43.8741 5.84636L41.1191 6.16723L41.1389 6.3414C41.6258 6.32944 41.6772 6.3414 41.7405 6.89524L42.0255 9.35361C42.085 9.85219 42.0417 9.90777 41.4833 10.0186L41.503 10.1928L44.4797 9.84832L44.4878 9.84444Z" fill="#798BA1"/>
<path fill-rule="evenodd" clip-rule="evenodd" d="M37.4617 6.92722C38.2298 6.74498 38.835 6.76469 39.2945 7.02998C39.6586 7.24777 39.9753 7.6394 40.1139 8.2094C40.2881 8.93385 40.1375 9.5394 39.7575 10.0028C39.3892 10.4616 38.8272 10.7547 38.0831 10.9327L36.6503 11.2772L36.6106 11.115C37.1211 10.9528 37.1609 10.9049 37.0381 10.3905L36.4564 7.96802C36.3336 7.4494 36.2781 7.43777 35.8031 7.50918L35.7598 7.33469L37.4578 6.9269L37.4617 6.92722ZM37.5489 10.2244C37.6598 10.6833 37.885 10.7508 38.3286 10.6439C39.4606 10.3747 39.7772 9.4011 39.5436 8.43526C39.3934 7.81356 39.0373 7.33081 38.4831 7.16052C38.1703 7.04969 37.8023 7.06164 37.3942 7.16052C37.1411 7.21998 36.9906 7.29106 36.9392 7.34664C36.8875 7.4019 36.8875 7.47331 36.9392 7.71081L37.5409 10.2244H37.5489Z" fill="#798BA1"/>
<path d="M32.0546 9.2111C31.9638 8.94968 32.0665 8.81526 32.3754 8.65693L32.3043 8.4986L30.9663 9.10026L31.0373 9.2586C31.4371 9.10414 31.6073 9.1161 31.7498 9.35747C31.8371 9.50805 31.9793 9.75718 32.2129 10.2797L32.8423 11.673L32.8265 11.6811L29.181 9.90388L28.3418 10.2839L28.4129 10.4422C28.6901 10.343 28.8326 10.3353 29.0107 10.4222C29.1729 10.5133 29.1968 10.5291 29.3829 10.9447L29.9452 12.1916C30.1785 12.7141 30.2854 12.9914 30.3488 13.1772C30.4438 13.4664 30.3368 13.6047 30.0159 13.7711L30.0873 13.9294L31.4293 13.3239L31.3582 13.1656C30.9621 13.3158 30.7998 13.3077 30.6415 13.0308C30.5504 12.8725 30.4121 12.6114 30.1746 12.0889L29.5332 10.6678H29.5451L33.2976 12.5439L33.4718 12.4647L32.4426 10.1808C32.2051 9.65411 32.1021 9.39302 32.0468 9.21497L32.0546 9.2111Z" fill="#798BA1"/>
<path fill-rule="evenodd" clip-rule="evenodd" d="M28.1789 12.615C28.8872 13.7553 28.5273 14.9467 27.5614 15.5484C26.6072 16.1419 25.3842 15.8731 24.7509 14.8633C24.1573 13.9133 24.272 12.6192 25.3803 11.9303C26.2747 11.3722 27.5178 11.5622 28.1747 12.6192L28.1789 12.615ZM25.2023 14.3767C25.8195 15.3664 26.8134 15.75 27.5572 15.2873C28.1431 14.9231 28.3651 14.1036 27.7317 13.09C27.0389 11.9781 26.0889 11.7484 25.4 12.1797C24.8103 12.5481 24.5887 13.3911 25.2023 14.3767Z" fill="#798BA1"/>
<path d="M23.652 18.0025L23.7586 18.1411L25.0609 17.1317L24.9542 16.9931C24.5267 17.2742 24.4711 17.2819 24.1428 16.8586L22.6186 14.8911C22.2942 14.4756 22.3101 14.4122 22.6939 14.072L22.5873 13.9333L21.2851 14.9428L21.3917 15.0811C21.8192 14.8 21.8787 14.7961 22.2031 15.2159L23.7273 17.1831C24.0517 17.6028 24.0359 17.6619 23.6559 18.0025H23.652ZM20.7901 16.5814C20.5367 16.4114 20.3903 16.3358 20.2676 16.3122C20.0934 16.2728 19.9864 16.3122 19.6462 16.6289L19.3253 16.9297L21.4153 19.1661C21.752 19.5264 21.8312 19.5383 22.2861 19.1622L22.4051 19.2889L21.0986 20.5081L20.9801 20.3814C21.3678 19.9697 21.3601 19.8867 21.0276 19.5306L18.9376 17.2939L18.6564 17.5553C18.2803 17.9075 18.2212 18.0303 18.2606 18.1886C18.2768 18.3153 18.3595 18.4775 18.4942 18.7308L18.3637 18.8536C18.1317 18.56 17.8954 18.2697 17.6551 17.9828L17.7462 17.8998C17.9084 17.9431 17.9756 17.8998 18.1023 17.7808L19.8956 16.1025C20.0184 15.9878 20.0301 15.9284 20.022 15.7739L20.117 15.6831C20.3109 15.8928 20.6437 16.2014 20.9129 16.4431L20.7939 16.5814H20.7901ZM19.6026 21.9134C19.5195 21.6956 19.2662 21.28 19.104 21.0306L18.9337 21.1256C19.2067 21.7631 19.2542 22.242 18.8426 22.7251C18.2331 23.4453 17.1839 23.4573 16.2934 22.705C15.5728 22.0956 15.2603 21.1058 15.9292 20.3142C16.3606 19.7998 16.8081 19.6889 17.4137 19.9894L17.5009 19.8195C17.2855 19.674 17.0663 19.534 16.8437 19.3997L16.7012 19.3089C16.6605 19.3426 16.6183 19.3744 16.5745 19.4039C16.3965 19.5345 16.1153 19.7442 15.862 20.0411C14.9673 21.102 14.9792 22.4281 15.9767 23.2711C16.7328 23.9083 17.9876 24.0825 18.9851 22.8989C19.2739 22.5586 19.5156 22.0756 19.5945 21.9172L19.6026 21.9134Z" fill="#798BA1"/>
<path fill-rule="evenodd" clip-rule="evenodd" d="M16.2124 26.3664L16.066 26.2714C16.2402 25.9153 16.2282 25.8439 15.983 25.7767C15.7969 25.725 15.5513 25.67 15.2744 25.6025L14.9932 25.5353L14.2649 26.6436L14.2888 26.6753C14.4491 26.8912 14.6139 27.1036 14.7832 27.3125C15.0369 27.6411 15.1199 27.6292 15.413 27.265L15.5594 27.36L14.8191 28.488L14.6727 28.393C14.843 28.037 14.8588 27.942 14.5182 27.4592L12.4954 24.5892L12.5549 24.3992C12.9388 24.4903 13.3346 24.5892 13.7385 24.6842C14.4946 24.8664 15.2624 25.0564 15.9946 25.2264C16.5488 25.353 16.6441 25.3175 16.8932 25.0008L17.0396 25.0958L16.2046 26.3706L16.2124 26.3664ZM13.1013 25.0483L13.0932 25.0603C13.4099 25.4917 13.7304 25.9272 14.0355 26.3386L14.0946 26.422L14.7241 25.4639L13.0971 25.0522L13.1013 25.0483ZM14.4627 29.2322C14.5007 29.1696 14.5351 29.1049 14.5657 29.0383L14.431 28.9433C14.336 29.05 14.2135 29.1492 13.9721 29.2164C13.7621 29.2797 13.5563 29.3233 13.1685 29.3828C12.8357 29.4261 12.3452 29.4736 12.1154 29.4778C12.1394 28.975 11.9927 28.5355 11.5138 28.2984C11.1813 28.132 10.8569 28.1517 10.5993 28.3061C10.3541 28.4483 10.1718 28.6981 9.97019 29.1055L9.28516 30.4872L9.43961 30.5664C9.69294 30.1505 9.73269 30.115 10.2077 30.3486L12.4479 31.457C12.9229 31.6906 12.931 31.7575 12.7368 32.2325L12.8952 32.312L13.6196 30.8472L13.4652 30.768C13.2118 31.1997 13.1527 31.2314 12.6777 30.9975L11.791 30.5583L11.8783 30.3803C12.0204 30.0914 12.1352 30.0281 12.3371 30.0119C12.4124 30.0042 12.4916 30.0003 12.5746 29.9925C12.8858 29.9702 13.196 29.9371 13.5049 29.8933C13.9919 29.8222 14.2294 29.6478 14.4588 29.2403L14.4627 29.2322ZM11.8821 29.5095C11.9254 29.7033 11.8821 29.9092 11.7354 30.1942L11.6049 30.4633L10.2355 29.7825C10.0849 29.7072 10.0293 29.652 10.0216 29.6003C10.0096 29.5411 10.0335 29.4342 10.1166 29.272C10.3266 28.8483 10.746 28.5633 11.3477 28.8603C11.6482 29.0105 11.8266 29.2086 11.886 29.5095H11.8821Z" fill="#798BA1"/>
<path d="M11.6304 32.787C11.8126 32.8897 12.3193 33.2064 12.4815 33.3253L11.4604 36.1436L11.2979 36.0842C11.4484 35.5381 11.4206 35.4747 10.9456 35.3006L8.61815 34.4572C8.09177 34.2672 8.0559 34.307 7.85039 34.7503L7.68786 34.6908L8.63398 32.0822C8.73706 32.1178 8.9668 32.1853 9.2001 32.2567C9.29898 32.2842 9.40206 32.3158 9.49286 32.3436L9.46119 32.5217C9.19622 32.4861 9.04565 32.4981 8.89119 32.5255C8.73706 32.5611 8.64206 32.7078 8.4876 33.1272L8.32539 33.5705C8.25786 33.7528 8.26593 33.7686 8.44398 33.832L9.7701 34.3108L9.96786 33.7605C10.1579 33.2342 10.1223 33.1867 9.75815 32.9689L9.82148 32.7989L10.946 33.2064L10.8823 33.3767C10.4351 33.3014 10.3837 33.3292 10.2015 33.8358L9.99952 34.39L11.104 34.7897C11.377 34.8889 11.5156 34.9005 11.6265 34.8214C11.7373 34.7341 11.8165 34.5325 11.9234 34.2397C12.0856 33.7964 12.0976 33.6142 11.9906 33.4319C11.9115 33.2897 11.7493 33.1075 11.5434 32.9453L11.6307 32.7789L11.6304 32.787ZM7.5851 36.4719C7.69981 36.4205 7.86202 36.4047 8.17093 36.4086L8.19452 36.2309C7.83843 36.1753 7.38735 36.1 7.1101 36.0328L7.07843 36.1595C7.16956 36.2822 7.19315 36.3414 7.1576 36.5039L6.58372 38.8905C6.54398 39.0608 6.51264 39.1361 6.3543 39.1875L6.32619 39.3103C6.65481 39.4011 7.04289 39.5278 7.3951 39.6428L7.43872 39.4683C7.18927 39.3339 7.03093 39.2428 6.94757 39.1478C6.82898 39.0369 6.80927 38.9025 6.92818 38.3997L7.01898 38.0236L9.99565 38.7364C10.4745 38.8511 10.5223 38.9141 10.427 39.4725L10.5973 39.5122L11.0129 37.7783L10.8429 37.7386C10.6684 38.3047 10.5973 38.3364 10.1184 38.2255L7.14565 37.513L7.24872 37.0855C7.35956 36.6303 7.42289 36.5395 7.59286 36.4761L7.5851 36.4719ZM6.37789 40.7353C6.35786 41.0836 6.42151 41.242 6.69036 41.2975C6.8726 41.3408 7.14952 41.3845 7.72372 41.4478L10.2134 41.7208L10.1937 41.9108L6.66289 44.187V44.1989L8.21456 44.3689C8.78456 44.4322 9.08119 44.4442 9.26343 44.448C9.58398 44.4519 9.67122 44.3175 9.74231 43.902L9.9168 43.9217L9.75427 45.3861L9.5801 45.3667C9.59981 45.0061 9.53648 44.8439 9.23952 44.7767C9.04952 44.7369 8.75677 44.6855 8.18677 44.6222L6.8251 44.472C6.37369 44.4203 6.34622 44.4322 6.18789 44.5272C6.0176 44.6342 5.95427 44.7647 5.89869 45.0539L5.72452 45.0339L5.8276 44.1194L9.21593 41.8834V41.8633L7.69593 41.6969C7.12593 41.6336 6.84093 41.6258 6.66677 41.6258C6.38565 41.6258 6.28677 41.7645 6.21536 42.1881L6.04119 42.168L6.20372 40.7114L6.37789 40.7311V40.7353ZM9.57622 48.0105H9.75039L9.76235 46.3639H9.58786C9.54843 46.8705 9.51677 46.9222 8.98231 46.918L6.49648 46.8983C5.96622 46.8945 5.93068 46.8428 5.89869 46.3322H5.72485L5.71289 47.9789H5.88706C5.92648 47.4683 5.96622 47.4208 6.4926 47.4247L8.97844 47.4447C9.50901 47.4486 9.54456 47.5 9.57622 48.0105Z" fill="#798BA1"/>
<path fill-rule="evenodd" clip-rule="evenodd" d="M71.4166 72.9519H23.5721C23.3702 72.9519 23.2038 72.7858 23.2038 72.5839C23.2038 72.3819 23.3702 72.2158 23.5721 72.2158H41.5982C42.5088 71.7289 43.1815 71.2183 43.2846 70.7036C43.5696 69.2786 44.1396 66.1517 43.2846 63.163C42.4296 60.9267 40.2802 59.3908 37.8024 58.3381C37.066 58.4447 36.1793 58.7497 35.463 59.4858C36.0924 60.0203 36.5435 60.2972 36.5991 60.3292C36.5991 60.3292 34.0182 62.1497 33.4205 63.6855C33.0443 63.1989 31.568 61.7222 30.9821 61.5164C31.2552 60.9386 32.6407 58.8644 34.204 58.2033C34.3585 58.4489 34.6118 58.7258 34.893 58.9911C35.344 58.5675 35.938 58.1519 36.6941 57.9064C34.0499 56.9564 31.2115 56.4894 29.2207 56.2597C29.169 56.9486 29.1732 57.7202 29.2324 58.7177C25.2188 58.0531 21.0782 59.7747 21.0782 59.7747C21.0388 59.5689 20.2471 55.4722 21.1771 53.1247C22.9071 52.4836 27.4115 53.2039 29.6996 53.6947C29.5135 54.3361 29.383 54.9019 29.2999 55.4997C31.2513 55.1992 33.0324 55.1514 34.6435 55.2703C34.038 54.4269 32.9455 53.2992 31.0493 52.4361C29.5589 51.7534 28.1939 50.8247 27.0118 49.6889C26.1846 50.0372 25.4049 50.4608 24.9338 50.8092C24.5341 48.3631 23.184 44.9072 21.5018 43.4505C21.5018 43.4505 25.7332 42.4333 27.4907 41.1072C27.5107 41.2419 27.5263 41.3844 27.5463 41.5308C27.8274 43.6447 28.314 47.2783 29.5529 48.9964C28.9315 49.008 28.2549 49.1822 27.4274 49.5147C28.5557 50.4767 29.941 51.3317 31.9993 51.8739C31.8966 51.4069 31.7974 50.6983 31.9121 49.7919C31.5877 49.7919 31.4332 49.8236 31.0891 49.8831C30.9782 48.8775 30.8632 46.9103 31.2157 46.1978C32.2646 45.9008 33.9905 46.4194 34.0774 46.4472C34.0774 46.4472 33.1552 48.1492 33.266 49.9028C32.8149 49.8317 32.7949 49.8356 32.4824 49.8275C32.4268 50.8408 32.518 51.4703 32.791 52.06C35.2649 52.8478 36.4168 54.4072 37.149 55.5869C38.5702 55.8519 39.631 56.1608 40.7157 56.5489C40.6957 56.0817 40.6482 55.3058 40.308 54.6647C40.0307 54.7397 39.8168 54.8389 39.4966 54.993C39.1915 53.2633 37.8971 51.8225 37.8971 51.8225C37.9882 51.7708 39.536 50.8686 40.6207 50.908C41.1313 51.5217 41.4796 53.4614 41.6063 54.4625C41.2224 54.4864 41.1827 54.4625 40.8305 54.5539C41.2382 55.3969 41.3568 56.1094 41.4321 56.8139C42.1999 57.107 42.8768 57.3958 43.4588 57.6453L43.6963 57.748C44.2227 53.6039 42.1882 50.2191 40.7907 48.4419C39.8407 49.1505 38.9343 49.9105 38.5505 50.3025C37.8024 47.4131 33.5352 43.605 33.5352 43.605C33.7055 43.5219 37.1413 41.7289 38.2813 40.2761C40.9532 41.7884 43.0074 45.8097 43.3916 46.9064C42.9243 47.013 42.1288 47.4922 41.3055 48.0739C41.9268 48.533 42.6749 49.1864 43.4746 50.1047C43.8465 50.528 44.1752 51.0192 44.4799 51.5572C44.8838 51.2011 45.4299 50.635 45.8257 49.8989C45.248 49.6969 44.7015 49.5305 44.4246 49.4753C45.6357 48.1492 46.1582 44.7411 46.1582 44.7411C46.2574 44.8002 48.2918 45.9444 49.4002 46.0433C49.5149 47.8881 48.1613 50.2511 47.7296 50.8011C47.5121 50.5875 46.9541 50.3261 46.3482 50.0886C46.1227 50.8408 45.6832 51.6719 44.9707 52.4952C45.6438 53.9202 46.1782 55.5669 46.6965 57.1742C46.839 57.6097 46.9777 58.0411 47.1202 58.4647C52.254 54.1855 50.7738 46.2375 49.713 42.548C49.0124 43.0072 48.2841 43.5814 47.3615 44.4086C45.1568 40.4341 40.7791 38.0119 40.7791 38.0119C40.9293 37.8339 43.9651 34.2992 46.661 33.4797C48.4266 34.5483 50.9202 38.9897 52.0799 41.3331C51.3716 41.6219 50.7699 41.9108 50.176 42.263C51.4268 44.0247 52.3096 46.2294 52.8124 48.5091C53.4852 47.8603 54.2888 47.2625 55.0527 46.7558C54.7715 46.5303 54.5182 46.3519 54.344 46.2928C54.6213 45.7147 56.0065 43.6405 57.5702 42.9797C58.1046 43.8464 59.8741 45.0539 59.9613 45.1053C59.9613 45.1053 57.3802 46.9261 56.7866 48.4619C56.5807 48.2005 56.054 47.6506 55.5238 47.1636C54.3402 48.6044 53.596 50.4725 53.2438 51.5217C53.3782 53.4178 53.2438 55.2386 52.8124 56.7586C54.008 56.0144 55.6543 55.5514 57.4713 55.302C57.6613 53.5603 59.1141 52.2303 60.3607 51.4031C59.8582 50.7891 59.3396 50.2986 58.6901 49.7522C60.3132 48.0661 63.6382 44.9431 65.4355 44.5075C67.5174 45.9325 69.1602 49.768 69.2393 49.9661C69.2393 49.9661 64.8457 50.8567 61.8927 53.6553C61.4455 52.8992 61.0574 52.3094 60.6777 51.8067C59.5574 53.1644 59.213 54.53 59.1138 55.1355C61.2949 54.9811 63.5988 55.0803 65.6174 55.3294C65.7996 54.3203 65.9024 53.378 65.7996 52.903C66.9555 52.7802 71.468 52.9505 73.9657 54.7319C73.1305 56.3786 72.9563 60.2497 72.9524 60.4397C72.9524 60.4397 67.6957 58.1797 64.7666 58.722C64.9524 58.2272 65.2455 57.1506 65.4791 56.0342C61.3307 55.9589 58.7221 56.5331 56.6557 57.5897C58.0371 57.7125 58.9396 57.8986 59.5219 58.0809C59.7235 57.6453 59.8699 57.2456 59.8818 57.0119C60.5152 57.1147 62.894 57.8669 63.963 59.1811C63.2779 59.9372 62.6171 61.9717 62.5893 62.0744C62.5893 62.0744 60.1193 60.1033 58.4804 59.9608C58.6785 59.6836 58.9396 59.3117 59.2605 58.6505C58.2707 58.3856 56.8299 58.1794 55.4999 58.3933C54.736 58.8842 54.0988 59.2642 53.3863 59.8894C52.5155 60.6497 51.8621 61.6589 51.4152 62.7711C51.7513 63.2661 51.9652 63.9744 51.9652 64.7703C51.9652 66.0567 51.4149 67.1252 50.6749 67.3986C50.7738 69.1797 51.316 70.7789 52.2582 71.7053C52.4721 71.8962 52.704 72.0659 52.9507 72.212H71.4124C71.6143 72.212 71.7807 72.378 71.7807 72.58C71.7807 72.7819 71.6143 72.9484 71.4124 72.9484L71.4166 72.9519ZM50.9005 64.4853C50.9677 63.733 50.7024 63.0919 50.3065 63.0603C49.9107 63.0247 49.5349 63.6064 49.4674 64.3586C49.404 65.1105 49.6693 65.7481 50.0613 65.7836C50.4571 65.8192 50.829 65.2375 50.9005 64.4853Z" fill="#798BA1"/>
<path d="M49.0273 9.5989L49.0156 9.77339L50.6623 9.87614L50.6742 9.70165C50.1676 9.63444 50.1201 9.5989 50.1514 9.06444L50.3059 6.58281C50.3375 6.05611 50.3889 6.02056 50.9037 6.01281L50.9156 5.83832L49.269 5.73944L49.257 5.91393C49.7637 5.98114 49.8112 6.02444 49.7795 6.55114L49.6289 9.03277C49.5973 9.55948 49.5459 9.59502 49.0311 9.60277L49.0273 9.5989ZM55.8634 8.88252C55.4873 8.87864 55.4559 8.90643 55.3965 9.2664L55.3134 9.7889C55.2779 10.0028 55.254 10.2006 55.2617 10.3709L55.1551 10.3789C54.7751 10.4106 54.3001 10.4461 53.8487 10.3789C52.499 10.1611 51.7309 9.1756 51.929 7.96031C52.1584 6.53531 53.4134 6.02864 54.6167 6.22252C55.0481 6.29361 55.4359 6.45614 55.6617 6.54726C55.7012 6.5631 55.7367 6.57893 55.7645 6.59056C55.7405 6.91486 55.722 7.23954 55.7092 7.56448L55.5309 7.57223C55.5034 6.8006 55.072 6.52335 54.4901 6.42835C53.5517 6.2781 52.7523 6.85165 52.57 7.9881C52.4279 8.87056 52.784 9.98698 53.9676 10.177C54.1773 10.2125 54.375 10.1967 54.5217 10.1531C54.6562 10.1056 54.7392 10.0422 54.7828 9.78502L54.8659 9.26252C54.937 8.81919 54.9014 8.77556 54.3078 8.62919L54.3356 8.4631L55.895 8.71643L55.8676 8.88252H55.8634ZM61.0134 8.48669C61.1162 8.23335 61.2826 8.19781 61.6228 8.28085L61.6745 8.11444L60.2689 7.69114L60.2175 7.85723C60.6215 8.00361 60.74 8.1264 60.6887 8.40332C60.657 8.57361 60.5975 8.85473 60.4315 9.40502L59.9881 10.8694H59.9684L58.389 7.12502L57.5062 6.86005L57.4545 7.02614C57.7278 7.13277 57.8425 7.22002 57.9178 7.40614C57.9812 7.58031 57.985 7.60777 57.8545 8.04335L57.4587 9.35364C57.2926 9.89973 57.1895 10.1809 57.1142 10.3589C56.9956 10.64 56.8253 10.6756 56.4731 10.5883L56.4214 10.7547L57.8309 11.1822L57.8823 11.0161C57.4865 10.8694 57.3717 10.7586 57.4309 10.4461C57.4664 10.2678 57.534 9.9789 57.7 9.42861L58.1515 7.9364H58.1634L59.7545 11.8236L59.9406 11.8789L60.6651 9.48031C60.8312 8.92614 60.9262 8.66085 61.0011 8.49056L61.0134 8.48669Z" fill="#798BA1"/>
<path fill-rule="evenodd" clip-rule="evenodd" d="M68.1905 16.0353C69.1405 16.6605 70.3758 16.4941 71.1161 15.3741C71.8008 14.3369 71.4602 13.1258 70.5778 12.5439C69.4888 11.8233 68.2619 12.2589 67.6444 13.1933C66.9875 14.1905 67.2528 15.4139 68.1905 16.0353ZM68.4202 15.9206C67.688 15.4375 67.6247 14.3728 68.2658 13.3989C68.9072 12.4291 69.7661 12.2789 70.3442 12.6628C71.025 13.11 71.2108 14.0716 70.4905 15.1644C69.8333 16.1619 68.9944 16.3006 68.4202 15.9206Z" fill="#798BA1"/>
<path d="M76.443 17.5194C76.1461 17.2939 75.98 17.2661 75.79 17.4364C75.6672 17.5511 75.4811 17.7453 75.1049 18.1767L74.7647 18.5644C74.2819 19.1186 73.8502 19.4433 73.3319 19.4908C72.9203 19.5264 72.5202 19.3522 72.2116 19.083C71.9386 18.8455 71.7247 18.5447 71.6575 18.2041C71.5625 17.7453 71.7405 17.278 72.2155 16.7277L73.2366 15.5561C73.605 15.1328 73.5853 15.0811 73.2408 14.7289L73.3555 14.5983L74.5705 15.655L74.4561 15.7858C74.0641 15.485 74.0047 15.4811 73.6366 15.9044L72.7064 16.9733C72.0494 17.7294 71.9741 18.4219 72.5561 18.9286C73.2327 19.5186 73.9336 19.1386 74.6064 18.3628L74.9153 18.0064C75.2911 17.575 75.4494 17.3653 75.5564 17.2027C75.6869 16.9969 75.6394 16.8544 75.3308 16.5458L75.4455 16.4153L76.5619 17.3889L76.4469 17.5194H76.443ZM79.5741 21.5214C79.7958 21.3592 79.9541 21.4186 80.1994 21.6677L80.3299 21.553L79.3606 20.4528L79.2297 20.5675C79.4947 20.9039 79.5305 21.0703 79.3405 21.28C79.2216 21.4105 79.0239 21.6164 78.5925 21.9925L77.4444 23.0019L77.4324 22.9858L78.0658 18.9803L77.4564 18.2875L77.3258 18.4022C77.5 18.6397 77.5514 18.7744 77.5197 18.9683C77.4799 19.1506 77.4722 19.1784 77.1319 19.475L76.1024 20.3775C75.6711 20.7536 75.4374 20.9397 75.2791 21.0502C75.03 21.2286 74.8674 21.1653 74.6141 20.9081L74.4836 21.0228L75.4575 22.1311L75.588 22.0161C75.3266 21.6836 75.2872 21.5252 75.505 21.2919C75.6278 21.1572 75.8414 20.9475 76.2689 20.5714L77.4405 19.5422L77.4483 19.5503L76.7516 23.6905L76.8783 23.8369L78.7624 22.1825C79.198 21.8025 79.4158 21.6244 79.5703 21.5214H79.5741Z" fill="#798BA1"/>
<path fill-rule="evenodd" clip-rule="evenodd" d="M82.1708 24.1655C82.6061 24.8228 82.7961 25.4005 82.7053 25.9234C82.6258 26.3428 82.3686 26.7742 81.882 27.0989C81.2603 27.5103 80.6389 27.5778 80.077 27.38C79.5186 27.1897 79.0478 26.7622 78.6242 26.125L77.8086 24.8981L77.9472 24.807C78.2758 25.2303 78.3311 25.2542 78.7744 24.9614L80.8528 23.5839C81.3 23.2866 81.2922 23.2317 81.0586 22.8116L81.2089 22.7131L82.1747 24.1697L82.1708 24.1655ZM79.1069 25.3808C78.7153 25.6419 78.7269 25.8794 78.9803 26.2555C79.6217 27.2256 80.6466 27.1897 81.4742 26.6397C82.0083 26.2875 82.3369 25.7805 82.3053 25.2067C82.3014 24.8742 82.1631 24.5339 81.9333 24.1856C81.7908 23.9678 81.6758 23.8489 81.6047 23.8214C81.5336 23.7936 81.4661 23.8172 81.2645 23.952L79.1111 25.3808H79.1069ZM81.6958 31.0808L81.5414 31.16L82.2222 32.5255L82.3767 32.4464C82.2303 32.0664 82.2419 31.9714 82.6339 31.5558C83.1483 31.0136 83.6947 30.4436 84.2292 29.8853C84.5139 29.5895 84.7975 29.2927 85.08 28.9947L84.9456 28.8483L81.4503 29.1492C80.8644 29.1967 80.7933 29.1372 80.5678 28.8128L80.4133 28.892L81.015 30.0992L81.1691 30.02C80.9992 29.5844 81.0308 29.5053 81.4425 29.4539C81.7093 29.411 81.9771 29.3755 82.2458 29.3472H82.2813L82.8714 30.5267C82.8003 30.602 82.7289 30.6772 82.6575 30.7483C82.4952 30.9209 82.3304 31.0912 82.1631 31.2589C81.9808 31.4411 81.9133 31.4133 81.6916 31.0847L81.6958 31.0808ZM84.2411 29.1175V29.1295L83.0695 30.325L82.5589 29.2997C83.1195 29.2373 83.6802 29.1765 84.2411 29.1175Z" fill="#798BA1"/>
<path d="M86.3907 34.9523C86.6482 34.7859 86.7749 34.6789 86.8421 34.5761C86.9487 34.4298 86.9529 34.3189 86.7946 33.8795L86.644 33.4639L83.7704 34.5128C83.3071 34.6828 83.2676 34.7503 83.4337 35.3164L83.2715 35.3756L82.6582 33.6972L82.8204 33.6378C83.0498 34.1564 83.1251 34.1842 83.5882 34.0139L86.4621 32.965L86.3315 32.6009C86.1532 32.1139 86.0624 32.015 85.904 31.9914C85.7774 31.9559 85.599 31.9714 85.314 31.9914L85.2507 31.8211C85.6115 31.7235 85.9704 31.6192 86.3273 31.5084L86.371 31.6273C86.2682 31.7578 86.2837 31.837 86.3432 32.0031L87.1865 34.3109C87.2457 34.4692 87.2974 34.5009 87.4437 34.5564L87.4874 34.6792C87.2182 34.7781 86.8023 34.9639 86.474 35.1145L86.3949 34.9523H86.3907ZM83.9643 37.0222L83.794 37.0659L84.2137 38.6612L84.3837 38.6175C84.289 38.1147 84.3088 38.0595 84.8232 37.9247L87.2298 37.2914C87.7404 37.157 87.7879 37.1964 87.9543 37.6792L88.1246 37.6359L87.7048 36.0406L87.5345 36.0842C87.6295 36.587 87.6056 36.6464 87.0951 36.7809L84.6887 37.4142C84.1782 37.5486 84.1265 37.5092 83.9643 37.0264V37.0222Z" fill="#798BA1"/>
<path fill-rule="evenodd" clip-rule="evenodd" d="M87.1536 43.3161C85.8278 43.5258 84.8697 42.7222 84.6956 41.5981C84.5214 40.4858 85.2497 39.4648 86.4295 39.2825C87.5339 39.1083 88.6817 39.722 88.8836 41.0122C89.0458 42.0572 88.3847 43.1223 87.1539 43.3161M86.6951 39.8803C85.5389 40.0622 84.7989 40.8261 84.9334 41.6931C85.0403 42.3739 85.7092 42.9006 86.889 42.7141C88.1831 42.5125 88.7689 41.7286 88.6422 40.9214C88.5356 40.2325 87.8467 39.6981 86.6989 39.8803H86.6951Z" fill="#798BA1"/>
<path d="M88.7899 48.1531C89.063 48.1692 89.1502 48.3153 89.1816 48.6636H89.356L89.3043 47.1911L89.1302 47.1992C89.1224 47.6306 89.0471 47.7808 88.766 47.8206C88.5918 47.8445 88.3072 47.88 87.7368 47.8997L86.2091 47.9553V47.9353L89.2333 45.232L89.2016 44.3136L89.0271 44.3214C89.0116 44.6145 88.968 44.7528 88.8177 44.8836C88.671 45.0022 88.6474 45.0142 88.196 45.03L86.8305 45.0775C86.2566 45.0972 85.9596 45.0895 85.7657 45.0775C85.4607 45.0578 85.3738 44.9033 85.3421 44.5431L85.168 44.5511L85.2197 46.0236L85.3935 46.0156C85.4016 45.5923 85.4727 45.4456 85.7893 45.4061C85.9674 45.3822 86.2682 45.3506 86.8382 45.3308L88.398 45.2753V45.2872L85.2352 48.05L85.2432 48.2442L87.7488 48.1531C88.3266 48.1333 88.6077 48.1333 88.7938 48.1531H88.7899ZM22.183 40.0622C21.3674 37.8853 17.7496 35.2886 17.7496 35.2886C17.8763 35.2095 20.386 33.5389 21.1499 32.3197C23.3466 33.2739 25.2666 36.2189 25.6505 37.0342C24.8152 37.3192 22.7252 39.3814 22.183 40.0622ZM73.7996 29.1256C73.7996 29.1256 71.4285 30.9028 70.4627 33.4122C69.196 32.5653 68.5032 32.2683 67.4427 31.9953C67.9332 30.5267 69.0299 27.7242 69.976 26.9522C71.6066 27.2094 73.6494 28.9986 73.7919 29.1256H73.7996ZM46.8633 27.8786C47.8566 27.9814 50.113 27.4353 50.8255 27.0708C50.6077 28.0606 51.5024 31.4411 51.9693 32.6723C51.3993 32.4664 49.3568 33.0006 48.011 33.4798C48.201 30.9422 46.8633 27.8786 46.8633 27.8786ZM55.2468 38.962C54.9224 40.9411 54.2219 42.9083 52.8799 44.1514C53.8693 42.2395 54.1585 40.0348 54.2852 38.5858C53.4935 38.3128 52.7019 38.1306 52.1199 38.1386C53.2993 36.3692 53.6558 32.7117 53.8616 30.5939C53.8774 30.4475 53.8894 30.3089 53.901 30.1745C55.7102 31.4373 59.9733 32.3 59.9733 32.3C58.3424 33.8161 57.1152 37.315 56.8024 39.7772C56.4266 39.52 55.8724 39.2231 55.2468 38.9578V38.962ZM57.1588 30.4633C58.0177 28.7375 59.8227 23.9558 59.6485 22.4833C60.6341 23.1206 63.8327 24.2528 65.2933 24.2447C65.2933 24.2447 62.8985 28.5081 62.7993 32.2247C60.9113 31.3264 58.0219 30.2494 57.1588 30.4633ZM68.341 41.7803C70.6766 40.2842 73.6216 37.3589 74.3658 34.9797C74.3658 34.9797 77.291 38.8708 79.4363 40.09C79.3096 40.1692 79.1713 40.2483 79.0246 40.3356C76.986 41.5625 73.4671 43.68 72.2557 45.7189C71.6463 44.3847 69.5324 42.4615 68.341 41.7803ZM72.6874 53.7739C72.9249 52.7806 71.6702 49.4714 70.6252 47.31C74.896 47.1714 79.7688 44.3928 79.7688 44.3928C79.7727 46.0711 81.0949 49.7325 81.831 50.8606C80.141 50.6706 74.6585 52.7767 72.6874 53.7781V53.7739ZM60.0405 39.3617C62.6688 37.9525 65.3643 32.9056 65.3643 32.9056C65.4871 33.0519 68.0363 35.9656 69.7227 36.7295C68.8835 39.6822 65.4635 42.6353 64.4858 43.2606C64.2958 42.8728 63.6149 42.1723 62.9418 41.5664C62.0274 42.4333 61.2399 43.617 60.6066 45.9248C60.4602 43.9653 61.2399 42.2156 62.2927 41.0281C61.3388 40.2206 60.5394 39.6548 60.0443 39.3575L60.0405 39.3617ZM32.5418 29.6995C32.5418 29.6995 30.1908 26.2992 28.1877 25.5075C28.8291 25.0167 30.7805 23.1089 31.0577 22.337C31.8096 22.705 34.5133 24.5417 35.3563 26.5923C34.2085 27.2808 32.6171 29.5844 32.5457 29.6995H32.5418ZM55.9713 27.4867C54.0833 27.2136 53.141 27.2492 51.7952 27.5145C51.5538 25.5906 51.2766 21.8222 51.9338 20.437C53.9369 19.8392 57.2619 20.7814 57.428 20.8328C57.428 20.8328 55.7099 24.1261 55.9713 27.4867ZM34.9049 39.7536C33.5077 39.8367 30.6974 40.6325 29.5335 41.5783C29.3555 39.1597 27.1071 35.6328 25.8007 33.5825C25.7057 33.4323 25.6149 33.2936 25.5316 33.1592C28.0455 33.0245 32.4905 30.7958 32.4905 30.7958C32.0908 33.3095 33.4482 37.3231 34.901 39.7536H34.9049ZM22.1235 46.5975C21.5852 47.3061 21.411 50.3817 21.4824 52.4756C18.0346 51.0783 13.1699 51.5731 13.1699 51.5731C13.7596 50.2353 14.001 46.8508 13.811 45.695C15.0938 46.4431 20.1999 46.7003 22.1235 46.5975ZM41.286 32.2764C39.6904 28.4683 35.9777 25.8439 35.9777 25.8439C36.1321 25.6975 39.2235 22.8081 41.741 22.337C43.2293 23.477 45.0385 27.7323 45.8577 29.9648C44.9749 30.2181 44.686 30.2695 43.9141 30.6731C44.306 31.2906 44.3496 32.3792 44.1438 33.2025C43.9855 32.4031 43.273 31.4767 42.9563 31.2114C42.4655 31.5006 41.9191 31.8289 41.2938 32.2764H41.286ZM49.7963 24.4506C48.118 24.3439 46.966 24.4389 44.7177 25.0325C44.516 21.1692 41.9113 17.6739 41.9113 17.6739C42.1052 17.5947 45.9963 16.0314 48.5219 16.4153C49.5352 17.8956 49.7885 22.2261 49.7963 24.4506ZM33.7255 32.8661C33.7255 32.8661 36.6466 31.5717 37.7355 30.3803C37.751 30.4317 37.7668 30.4831 37.7869 30.5344C37.8024 30.5819 37.8185 30.6336 37.8344 30.685C38.321 32.1733 39.1524 34.7306 40.2766 35.8073C39.3343 35.9973 37.7908 37.0658 37.1771 37.7266C36.5635 36.0131 35.1269 33.6972 33.7216 32.87L33.7255 32.8661Z" fill="#798BA1"/>
<path fill-rule="evenodd" clip-rule="evenodd" d="M0 47.5C0 21.2642 21.2684 0 47.5 0C73.7316 0 95 21.2642 95 47.5C95 73.7358 73.7358 95 47.5 95C21.2684 95 0 73.7358 0 47.5ZM1.30641 47.5C1.30641 73.0114 21.9886 93.6936 47.5 93.6936C73.0114 93.6936 93.6939 73.0114 93.6939 47.5C93.6939 21.9886 73.0156 1.30609 47.5 1.30609C21.9844 1.30609 1.30641 21.9889 1.30641 47.5Z" fill="#798BA1"/>
<path d="M53.7577 82.2581C53.7577 82.9311 53.631 83.517 53.3777 84.0117C53.1244 84.5064 52.7961 84.91 52.3921 85.2266C51.9809 85.5463 51.5138 85.7867 51.0146 85.9356C50.5041 86.0897 49.9774 86.1689 49.4352 86.1689H46.1538V85.7731C46.2604 85.7731 46.4033 85.7653 46.5732 85.7453C46.7477 85.7216 46.8625 85.6979 46.9177 85.6742C47.0285 85.6267 47.1077 85.5556 47.1591 85.4603C47.214 85.354 47.2412 85.2357 47.2382 85.1161V79.4042C47.2397 79.2873 47.2168 79.1714 47.171 79.0639C47.1316 78.9647 47.0444 78.8856 46.9216 78.8264C46.8037 78.7689 46.6786 78.7276 46.5496 78.7036C46.436 78.6795 46.3209 78.6623 46.2052 78.6519V78.2564H49.6649C50.1399 78.2564 50.6107 78.3314 51.0699 78.4781C51.5333 78.6245 51.933 78.8183 52.2732 79.0678C52.7405 79.4003 53.1046 79.8317 53.3657 80.3661C53.631 80.9006 53.7616 81.5339 53.7616 82.2581H53.7577ZM52.3921 82.2542C52.3921 81.7236 52.3211 81.2408 52.1786 80.8133C52.0359 80.3819 51.8301 80.0058 51.5611 79.6853C51.3017 79.3777 50.9772 79.1315 50.6111 78.9647C50.2388 78.7906 49.8233 78.7036 49.368 78.7036C49.2177 78.7036 49.0436 78.7036 48.8494 78.7153C48.6594 78.7153 48.5169 78.7233 48.4261 78.7272V84.815C48.4261 85.1556 48.5249 85.3892 48.7227 85.5197C48.9204 85.6503 49.2216 85.7136 49.6333 85.7136C50.1044 85.7136 50.5199 85.6306 50.8721 85.4645C51.2244 85.298 51.5136 85.0644 51.731 84.7678C51.9669 84.4434 52.1377 84.0763 52.2338 83.6869C52.3404 83.2753 52.396 82.7964 52.396 82.2581L52.3921 82.2542ZM44.1627 86.1689H41.6413V85.8008C41.8077 85.7811 41.9502 85.7653 42.0646 85.7453C42.1835 85.7259 42.243 85.6781 42.243 85.5989C42.243 85.5672 42.2233 85.5117 42.1877 85.4444C42.1522 85.3734 42.1124 85.31 42.0769 85.2506C41.9819 85.1042 41.8552 84.9103 41.6927 84.6689C41.5009 84.374 41.3043 84.0823 41.103 83.7939C40.9177 84.0246 40.7394 84.2609 40.5685 84.5025C40.4063 84.7281 40.2321 84.9694 40.0541 85.227C40.0263 85.2625 39.9985 85.31 39.9707 85.3656C39.9429 85.4212 39.9313 85.4645 39.9313 85.5C39.9313 85.5831 39.983 85.6506 40.0858 85.7058C40.1924 85.7575 40.3549 85.7931 40.5646 85.8125V86.1689H38.526V85.8244C38.7794 85.7495 38.9813 85.6622 39.1358 85.5553C39.2957 85.4435 39.4395 85.3103 39.5633 85.1594C39.678 85.0092 39.8402 84.8072 40.0421 84.5461C40.2522 84.2847 40.5171 83.9325 40.8458 83.4853C40.6558 83.2123 40.4221 82.8836 40.1491 82.4917C39.8761 82.0958 39.6544 81.7711 39.4721 81.51C39.3828 81.3762 39.2686 81.2607 39.1358 81.1698C39.013 81.0825 38.8388 81.035 38.6091 81.035V80.6666H41.0041V81.035C40.8852 81.035 40.7666 81.0428 40.6519 81.0586C40.5369 81.0748 40.4774 81.1061 40.4774 81.1578C40.4774 81.1895 40.4894 81.2289 40.5091 81.2686C40.5288 81.3084 40.5608 81.3559 40.5924 81.4031C40.6755 81.5297 40.8021 81.7236 40.9724 81.9889C41.1466 82.2542 41.3366 82.5314 41.5347 82.8242C41.6652 82.6461 41.8155 82.4364 41.9858 82.1986C42.1513 81.976 42.311 81.7491 42.4646 81.5181C42.4805 81.4942 42.4963 81.4586 42.5083 81.4231C42.5236 81.3853 42.5316 81.3449 42.5319 81.3042C42.5319 81.225 42.4685 81.1656 42.338 81.1181C42.2205 81.072 42.0984 81.0389 41.9738 81.0192V80.6631H44.0044V81.0072C43.7194 81.0825 43.4938 81.1698 43.3355 81.2764C43.1771 81.3756 43.0385 81.4942 42.9277 81.6286C42.8049 81.7792 42.6585 81.9692 42.4882 82.1908C42.3221 82.4125 42.0846 82.7253 41.7799 83.1289C42.1202 83.6039 42.3936 83.9958 42.6071 84.3006C42.8211 84.6056 43.0346 84.9181 43.2486 85.2428C43.3554 85.405 43.4741 85.5357 43.6046 85.6348C43.7391 85.7256 43.9213 85.7811 44.1507 85.797V86.165L44.1627 86.1689ZM36.9349 86.1689H33.3686V85.7731C33.4674 85.7653 33.6138 85.7533 33.8038 85.7414C33.9938 85.7256 34.1286 85.7058 34.2035 85.6742C34.3263 85.6267 34.4174 85.5595 34.4727 85.4803C34.5283 85.3931 34.5561 85.2784 34.5561 85.1281V79.3925C34.5561 79.2617 34.536 79.1547 34.4924 79.0678C34.453 78.9806 34.3541 78.9053 34.2035 78.8461C34.0662 78.7932 33.9246 78.7522 33.7802 78.7234C33.645 78.6891 33.5074 78.6653 33.3686 78.6523V78.2564H36.9349V78.6523C36.8202 78.6523 36.6816 78.6716 36.5233 78.6956C36.3649 78.7195 36.2224 78.7473 36.1035 78.7828C35.9613 78.8261 35.866 78.9014 35.8185 79.0003C35.771 79.0991 35.7474 79.2142 35.7474 79.337V85.0648C35.7474 85.1875 35.7752 85.2981 35.8266 85.3931C35.8819 85.4842 35.9769 85.5595 36.1035 85.6147C36.1827 85.6425 36.3094 85.6781 36.4835 85.7136C36.6619 85.7453 36.8121 85.7653 36.9349 85.7692V86.1689ZM55.353 78.2522V78.6481C55.4519 78.6561 55.5866 78.6797 55.7569 78.7156C55.9269 78.7511 56.0655 78.7948 56.1644 78.8423C56.2949 78.9014 56.3783 78.9806 56.4216 79.0756C56.4613 79.1667 56.4849 79.2775 56.4849 79.4003V85.1123C56.4849 85.2467 56.4574 85.3614 56.4057 85.4564C56.3583 85.5475 56.2792 85.6188 56.1682 85.6703C56.113 85.6981 55.9905 85.7178 55.8041 85.7375C55.6183 85.7537 55.468 85.7614 55.3569 85.7692V86.165H58.7885V85.7692C58.6938 85.7692 58.5513 85.7456 58.3652 85.7058C58.1791 85.6703 58.0566 85.6386 58.001 85.6108C57.8782 85.5514 57.791 85.4722 57.7438 85.3772C57.6949 85.2748 57.6706 85.1624 57.6727 85.0489V82.3217H58.1991C58.9433 82.3217 59.1174 82.4125 59.2321 82.5075C59.3074 82.5708 59.3743 82.6739 59.438 82.8164C59.5052 82.9586 59.5488 83.0736 59.5566 83.1211H59.9802V81.0667H59.5569C59.538 81.2007 59.4965 81.3305 59.4341 81.4506C59.3746 81.5695 59.3073 81.6566 59.2321 81.712C59.1255 81.795 58.9433 81.8703 58.1991 81.8703H57.6724V78.7075H59.7863C60.5305 78.7075 60.7046 78.7986 60.8194 78.8936C60.8946 78.957 60.9619 79.0597 61.0252 79.2022C61.0924 79.3447 61.1441 79.5073 61.1441 79.5073H61.5674V78.2483H55.3569L55.353 78.2522ZM16.6721 72.9639C16.5613 72.9639 16.4544 72.9164 16.3791 72.8253C11.4155 66.7294 8.3716 59.387 7.58381 51.585C7.57415 51.4859 7.6041 51.3869 7.66712 51.3098C7.73014 51.2327 7.82112 51.1836 7.92019 51.1733C7.96933 51.1683 8.019 51.1729 8.06633 51.1871C8.11366 51.2013 8.15772 51.2247 8.19597 51.2559C8.23423 51.2872 8.26593 51.3257 8.28925 51.3693C8.31257 51.4128 8.32705 51.4605 8.33186 51.5097C9.10381 59.1653 12.0882 66.3733 16.961 72.3506C17.024 72.4282 17.0535 72.5277 17.0432 72.6272C17.0328 72.7266 16.9834 72.8178 16.9058 72.8808C16.838 72.9342 16.7545 72.9634 16.6683 72.9639H16.6721ZM78.3271 72.9639C78.2441 72.9639 78.1607 72.9361 78.0896 72.8808C78.012 72.8179 77.9625 72.7267 77.9521 72.6272C77.9417 72.5278 77.9711 72.4283 78.0341 72.3506C82.9069 66.3695 85.8916 59.1653 86.6632 51.5097C86.668 51.4605 86.6825 51.4128 86.7058 51.3693C86.7292 51.3257 86.7609 51.2872 86.7991 51.2559C86.8374 51.2247 86.8814 51.2013 86.9288 51.1871C86.9761 51.1729 87.0258 51.1683 87.0749 51.1733C87.174 51.1835 87.2651 51.2326 87.3282 51.3097C87.3913 51.3868 87.4213 51.4858 87.4116 51.585C86.6238 59.387 83.5838 66.7333 78.616 72.8253C78.5806 72.8687 78.5359 72.9037 78.4853 72.9277C78.4347 72.9517 78.3793 72.9642 78.3233 72.9642L78.3271 72.9639ZM64.9599 9.5L64.8688 9.68225C64.9124 9.70971 64.9677 9.74946 65.0349 9.80503C65.1063 9.85997 65.1577 9.91167 65.1932 9.95529C65.2407 10.0105 65.2608 10.0661 65.2566 10.1214C65.2566 10.1731 65.2372 10.2283 65.2091 10.2839L63.903 12.8883C63.8713 12.9478 63.8358 12.995 63.7883 13.027C63.7446 13.0586 63.6933 13.0706 63.6299 13.0706C63.5983 13.0706 63.5388 13.0505 63.4477 13.0189C63.3604 12.9833 63.2894 12.9555 63.238 12.9316L63.1469 13.1139L64.7105 13.8978L64.8016 13.7155C64.7392 13.6778 64.6796 13.6355 64.6236 13.5889C64.5725 13.5509 64.5248 13.5085 64.4811 13.4622C64.4414 13.4158 64.4191 13.3571 64.4177 13.2961C64.4177 13.2405 64.4336 13.1853 64.461 13.1297L65.0866 11.887L65.328 12.0055C65.6682 12.1758 65.7277 12.2589 65.7555 12.3261C65.7753 12.3735 65.7832 12.4368 65.7791 12.5161C65.7791 12.5953 65.7713 12.6586 65.7632 12.6825L65.9571 12.7814L66.4282 11.8433L66.2344 11.7445C66.1949 11.8036 66.1471 11.8511 66.0922 11.8908C66.0366 11.9303 65.9888 11.9542 65.9416 11.9619C65.8741 11.9739 65.7752 11.97 65.4349 11.7997L65.1932 11.6811L65.918 10.2361L66.8842 10.7192C67.2244 10.8895 67.2836 10.9725 67.3113 11.0397C67.3312 11.0871 67.3391 11.1504 67.3353 11.2297C67.3353 11.3089 67.3191 11.3961 67.3191 11.3961L67.513 11.495L67.8022 10.9211L64.9683 9.5H64.9599Z" fill="#798BA1"/>
</g>
<defs>
<clipPath id="clip0_239_629">
<rect width="95" height="95" fill="white"/>
</clipPath>
</defs>
</svg>
