<svg width="614" height="614" viewBox="0 0 614 614" fill="none" xmlns="http://www.w3.org/2000/svg">
<g opacity="0.25" clip-path="url(#clip0_239_579)">
<path d="M1.20983 308.209L1.20983 305.589L2.61974 305.589C73.1706 305.186 83.454 250.357 95.5475 187.062C103.611 144.933 112.48 97.3608 141.306 61.279C174.363 19.9559 228.385 -1.68558e-05 306.597 -1.3437e-05C307.201 -1.34106e-05 307.806 -1.33841e-05 308.411 -1.33577e-05L309.621 -1.33048e-05L309.621 1.41104C309.621 169.324 446.087 305.791 614 305.791L614 308.411C542.239 308.411 530.144 364.248 516.034 428.953C506.56 472.694 496.683 517.848 468.059 553.528C435.202 594.247 382.994 614 308.209 614C307.605 614 307 614 306.395 614L305.186 614L305.186 612.79C305.186 445.885 169.324 309.419 2.61974 308.411L1.20983 308.209ZM306.799 2.41892C306.597 2.41892 306.597 2.41892 306.395 2.41892C228.99 2.41892 175.774 22.1732 143.321 62.6898C114.9 98.1672 106.031 145.538 97.9671 187.264C91.9181 219.113 86.2738 249.148 72.9704 271.321C61.4819 290.672 45.3541 301.961 22.9817 306.194C96.7572 311.434 165.494 342.88 218.307 395.895C275.554 453.545 307.403 529.941 307.605 611.18C307.806 611.18 307.806 611.18 308.008 611.18C473.502 611.18 494.466 514.018 513.212 428.147C520.267 395.693 526.919 365.054 541.029 342.679C553.124 323.126 569.653 311.636 591.827 307.403C518.05 302.162 449.514 270.918 396.701 218.307C339.051 160.454 307.202 83.8556 306.799 2.41892Z" fill="#798BA1"/>
<path d="M20.5619 308.209L20.5619 305.589L21.9718 305.589C87.8881 305.186 97.9668 253.985 109.656 194.924C117.319 155.818 126.188 111.673 152.995 78.2113C183.635 39.7102 233.626 20.7621 305.589 20.359C306.194 20.359 306.798 20.359 307.202 20.359L308.613 20.359L308.613 21.77C308.613 178.394 436.008 305.79 592.633 305.79L592.633 308.411C525.508 308.411 513.817 360.619 500.11 421.092C491.039 461.61 481.564 503.739 454.956 536.795C424.317 574.69 376.14 593.438 307.202 593.843C306.597 593.843 305.992 593.843 305.387 593.843L304.178 593.843L304.178 592.633C304.178 437.016 177.387 309.62 21.7717 308.612L20.5619 308.209ZM305.992 22.7779L305.79 22.7779C234.634 23.181 185.248 41.726 155.214 79.6221C128.808 112.681 120.544 154.608 112.48 195.327C106.636 225.16 100.991 253.179 88.493 273.74C77.6048 291.68 62.6914 302.162 42.1292 306.194C110.865 311.233 174.766 340.663 223.749 389.847C277.167 443.668 306.798 514.823 307.202 590.618C307.403 590.618 307.403 590.618 307.605 590.618C459.794 589.608 480.154 499.505 497.892 419.882C504.746 389.646 511.196 361.022 524.5 339.857C535.99 321.917 551.31 311.031 571.871 307C503.335 301.96 439.435 272.933 390.452 223.749C336.027 170.331 306.194 98.7721 305.992 22.7779Z" fill="#798BA1"/>
<path d="M39.9097 308.209L39.9097 305.589L41.3241 305.589C102.802 305.186 112.48 257.815 123.969 202.786C131.428 166.703 139.892 125.985 164.687 94.9421C193.11 59.2633 239.069 41.5248 304.782 40.7185C305.185 40.7185 305.79 40.7185 306.395 40.7185L307.605 40.7185L307.605 42.1294C307.605 187.466 425.929 305.791 571.266 305.791L571.266 308.411C508.777 308.411 497.489 356.789 484.387 413.029C475.719 450.522 466.648 489.226 441.854 519.862C413.633 554.938 369.287 572.475 306.193 573.485C305.589 573.485 305.185 573.485 304.581 573.485L303.371 573.485L303.371 572.275C303.371 427.744 185.852 309.419 41.3241 308.613L39.9097 308.209ZM304.984 43.1373C304.783 43.1373 304.783 43.1373 304.984 43.1373C159.244 45.153 141.911 129.009 126.588 202.987C116.31 252.776 107.236 296.72 60.672 306.194C124.169 311.031 183.232 338.244 228.587 383.8C278.174 433.791 305.79 499.91 306.193 570.256L306.395 570.256C445.482 568.241 464.834 485.192 481.766 412.021C488.418 383.8 494.465 357.192 507.165 337.639C517.848 321.111 531.958 311.031 550.906 307.201C413.835 296.921 305.589 182.426 304.984 43.1373Z" fill="#798BA1"/>
<path d="M59.262 308.209L59.262 305.589L60.6719 305.589C117.519 305.186 127.193 261.444 138.081 210.647C145.136 177.588 153.4 140.297 176.177 111.673C202.382 78.8162 244.108 62.2869 303.774 61.0775C304.178 61.0775 304.782 61.0775 305.186 61.0775L306.597 61.0775L306.597 62.4884C306.597 196.536 415.649 305.791 549.898 305.791L549.898 308.411C491.845 308.411 480.96 353.161 468.462 404.966C460.197 439.234 451.53 474.713 428.752 502.93C402.748 535.185 362.231 551.713 305.387 552.923C304.984 552.923 304.379 552.923 303.774 552.923L302.565 552.923L302.565 551.713C302.565 418.27 194.117 309.217 60.6719 308.612L59.262 308.209ZM303.976 63.4962C172.146 66.3183 155.414 143.119 140.901 210.848C131.023 256.808 122.154 297.123 79.624 306.194C137.877 310.83 192.102 336.027 233.828 377.955C279.586 424.116 304.984 485.192 305.387 550.098C431.17 547.279 449.715 471.284 465.841 404.159C472.091 378.156 478.138 353.564 490.031 335.422C499.908 320.304 513.01 311.031 530.345 307.403C404.159 297.324 304.581 191.9 303.976 63.4962Z" fill="#798BA1"/>
<path d="M78.8144 308.209L78.8144 305.589L80.2289 305.589C132.637 305.387 141.911 265.072 152.595 218.508C159.446 188.674 167.307 154.608 188.07 128.605C212.057 98.7716 249.551 83.2506 303.17 81.6379C303.573 81.6379 304.177 81.6379 304.581 81.6379L305.589 81.6379L305.589 83.0492C305.589 206.01 405.57 305.992 528.531 305.992L528.531 308.612C475.114 308.612 464.632 349.734 452.537 397.306C444.676 428.348 436.411 460.6 415.649 486.402C391.863 515.833 355.378 531.151 304.379 532.765C303.976 532.765 303.371 532.765 302.968 532.765L301.759 532.765L301.759 531.556C301.759 409.4 202.382 309.419 80.2289 308.814L78.8144 308.209ZM302.968 83.8551C185.046 87.6851 169.122 157.43 155.01 218.71C145.336 260.637 137.072 297.526 97.9667 305.992C151.18 310.427 200.567 333.406 238.665 371.706C280.593 414.037 303.976 469.874 304.379 529.336C416.858 525.507 434.395 456.57 449.917 395.894C455.964 371.907 461.81 349.331 472.896 332.801C482.169 319.094 494.062 310.628 509.583 307.201C394.484 297.727 303.775 201.374 302.968 83.8551Z" fill="#798BA1"/>
<path d="M98.168 308.21L98.168 305.589L99.5779 305.589C147.556 305.388 156.425 268.701 166.704 226.168C173.356 199.359 180.613 168.719 199.561 145.135C221.129 118.124 254.793 103.811 302.163 101.594C302.566 101.594 302.969 101.594 303.372 101.594L304.784 101.594L304.784 103.006C304.784 214.679 395.694 305.589 507.367 305.589L507.367 308.21C458.586 308.21 448.507 345.702 436.816 388.84C421.899 444.273 404.967 507.164 303.574 512.003C303.171 512.003 302.768 512.003 302.364 512.003L301.155 512.003L301.155 510.593C301.155 399.523 210.849 308.814 99.7826 308.21L98.168 308.21ZM301.961 104.215C197.948 109.053 182.83 171.541 169.325 226.571C160.052 264.468 151.991 297.929 116.715 306.194C164.688 310.427 209.237 331.189 243.706 365.86C281.804 404.16 302.969 455.16 303.372 509.179C402.548 504.344 419.279 442.661 433.792 388.034C443.669 350.944 453.143 315.668 489.024 307.201C385.011 298.332 302.768 210.849 301.961 104.215Z" fill="#798BA1"/>
<path d="M117.52 308.209L117.52 305.589L118.93 305.589C162.471 305.387 171.139 272.329 181.016 234.029C187.668 209.034 194.32 183.031 211.253 162.067C230.604 137.878 260.034 124.775 301.155 122.155C301.558 122.155 301.961 122.155 302.365 122.155L303.776 122.155L303.776 123.566C303.776 223.951 385.414 305.589 485.799 305.589L485.799 308.209C441.452 308.209 431.776 341.872 420.69 380.978C406.579 430.163 390.655 485.797 302.566 491.641C302.163 491.641 301.76 491.641 301.357 491.641L300.148 491.641L300.148 490.436C300.148 390.654 218.912 309.016 119.13 308.411L117.52 308.209ZM300.953 124.775C210.849 130.621 196.336 185.853 183.637 234.634C174.767 268.7 166.906 298.735 135.258 306.395C178.194 310.427 217.904 329.173 248.746 360.014C283.013 394.484 302.163 440.242 302.566 489.021C388.438 483.177 404.16 428.55 418.069 380.373C427.543 347.114 436.614 315.466 468.866 307.604C375.335 298.735 301.76 220.322 300.953 124.775Z" fill="#798BA1"/>
<path d="M136.873 308.21L136.873 305.589L138.283 305.589C177.388 305.388 185.652 275.958 195.529 241.689C207.826 198.351 221.936 149.167 300.349 142.514C300.752 142.514 301.155 142.514 301.356 142.514L302.768 142.514L302.768 143.925C302.768 233.022 375.335 305.589 464.432 305.589L464.432 308.21C424.721 308.21 415.449 338.244 404.563 373.117C391.259 415.851 376.343 464.43 301.558 471.284L301.356 471.284C300.953 471.284 300.752 471.284 300.349 471.284L299.139 471.284L299.139 470.074C299.139 381.382 226.975 308.814 138.283 308.411L136.873 308.21ZM299.946 145.135C223.75 151.787 210.043 199.963 197.948 242.294C189.683 271.321 181.822 298.937 153.601 306.194C191.498 310.024 226.572 326.553 253.785 353.766C284.223 384.405 301.356 425.124 301.558 468.259C374.125 461.61 388.841 414.037 401.741 372.109C410.812 342.679 419.48 314.66 448.104 307.201C365.659 299.138 300.752 229.595 299.946 145.135Z" fill="#798BA1"/>
<path d="M156.425 308.209L156.425 305.589L157.835 305.589C192.505 305.387 200.569 279.384 210.042 249.349C221.734 212.461 234.836 170.533 299.542 162.873C299.945 162.873 300.147 162.873 300.55 162.873L301.961 162.873L301.961 164.285C301.961 242.294 365.458 305.589 443.266 305.589L443.266 308.209C407.99 308.209 398.919 334.817 388.639 365.457C376.343 401.942 362.434 443.265 300.752 450.925L300.55 450.925C300.349 450.925 299.945 450.925 299.542 450.925L298.333 450.925L298.333 449.716C298.333 372.31 235.24 308.814 157.835 308.411L156.425 308.209ZM299.139 165.494C236.852 173.153 223.951 213.872 212.663 249.954C204.6 275.353 197.142 299.541 172.348 306.194C243.907 313.854 300.147 374.528 300.953 447.902C360.216 440.242 373.924 399.926 385.817 364.449C394.484 338.647 402.749 314.055 427.745 307.201C355.983 299.743 299.744 239.069 299.139 165.494Z" fill="#798BA1"/>
<path d="M175.775 308.209L175.775 305.589L177.185 305.589C207.623 305.387 215.485 282.811 224.758 256.808C235.643 226.369 247.737 191.699 298.534 183.232L298.736 183.232C298.937 183.232 299.34 183.232 299.542 183.232L300.953 183.232L300.953 184.643C300.953 251.365 355.177 305.589 421.898 305.589L421.898 308.209C390.856 308.209 382.188 331.189 372.311 357.998C361.023 388.033 348.122 422.301 299.945 430.566L299.744 430.566C299.542 430.566 299.139 430.566 298.937 430.566L297.728 430.566L297.728 429.357C297.728 363.038 243.706 308.814 177.589 308.411L175.775 308.209ZM298.131 186.054C249.753 194.521 237.86 227.982 227.378 257.614C219.718 279.384 212.26 300.146 190.893 306.395C251.769 313.45 299.34 365.255 300.147 427.744C346.308 419.479 358.604 386.219 369.69 356.991C377.955 334.817 386.018 313.652 407.587 307.403C346.509 300.146 298.736 248.543 298.131 186.054Z" fill="#798BA1"/>
<path d="M195.125 308.21L195.125 305.589L196.536 305.589C222.741 305.388 230.603 286.238 239.875 263.863C249.752 239.875 260.839 212.663 297.728 203.592L297.929 203.592C298.131 203.592 298.332 203.592 298.534 203.592L299.945 203.592L299.945 205.003C299.945 260.436 345.098 305.589 400.531 305.589L400.531 308.21C373.722 308.21 365.255 327.964 355.58 350.742C345.501 374.327 334.011 401.136 298.937 410.207L298.534 410.207C298.332 410.207 298.131 410.207 297.929 410.207L296.72 410.207L296.72 408.998C296.72 353.967 251.768 308.814 196.738 308.411L195.125 308.21ZM297.123 206.414C262.452 215.485 251.768 241.689 242.294 264.669C234.836 283.013 227.579 300.55 209.437 306.194C259.428 312.846 298.534 355.378 299.34 406.982C332.197 398.113 343.284 372.311 352.959 349.331C361.022 330.584 368.682 312.846 387.026 307C336.833 300.751 297.929 258.219 297.123 206.414Z" fill="#798BA1"/>
<path d="M214.477 308.209L214.477 305.589L215.888 305.589C238.465 305.387 246.326 289.06 255.598 270.313C264.065 252.978 273.539 233.425 296.317 224.152L296.518 224.152L296.72 224.152C296.922 224.152 297.123 224.152 297.325 224.152L298.736 224.152L298.736 225.563C298.736 269.708 334.616 305.791 378.963 305.791L378.963 308.411C355.983 308.411 347.517 325.142 337.841 344.493C329.375 361.425 319.7 380.575 297.929 389.848L297.728 390.049L297.526 390.049C297.325 390.049 297.123 390.049 296.922 390.049L295.712 390.049L295.712 388.84C295.712 344.896 260.033 309.016 216.09 308.612L214.477 308.209ZM296.115 226.974C275.151 236.045 266.484 253.784 258.017 271.12C250.559 286.439 243.303 301.154 227.781 306.194C267.088 312.039 297.325 345.702 298.332 386.219C318.087 377.35 326.956 359.813 335.423 342.88C343.284 327.157 350.944 312.241 366.667 307C327.36 301.356 297.123 267.693 296.115 226.974Z" fill="#798BA1"/>
<path d="M234.029 308.209L234.029 305.589L235.44 305.589C255.799 305.387 265.072 289.664 274.748 272.933C280.593 262.855 286.641 252.574 295.308 244.713L295.711 244.31L296.114 244.31C296.316 244.31 296.316 244.31 296.518 244.31L297.929 244.31L297.929 245.721C297.929 278.779 324.738 305.589 357.797 305.589L357.797 308.209C336.833 308.209 327.359 324.537 317.28 341.671C311.636 351.346 305.79 361.425 297.526 369.085L297.122 369.488L296.518 369.488C296.316 369.488 296.316 369.488 296.114 369.488L294.905 369.488L294.905 368.279C294.905 335.422 268.297 308.612 235.44 308.411L234.029 308.209ZM295.107 248.341C287.649 255.598 282.206 265.072 276.965 274.143C268.7 288.253 260.839 301.759 246.325 306.395C274.344 311.636 296.114 335.825 297.324 365.053C304.379 357.998 309.62 348.928 314.659 340.058C323.126 325.545 331.189 311.636 346.105 307C318.086 301.96 296.518 277.771 295.107 248.341Z" fill="#798BA1"/>
<path d="M253.381 308.209L253.381 305.589L254.791 305.589C276.36 305.388 293.897 287.85 293.897 266.282L293.897 264.669L295.107 264.669C295.308 264.669 295.308 264.669 295.51 264.669L296.921 264.669L296.921 266.08C296.921 287.85 314.66 305.589 336.43 305.589L336.43 308.209C314.66 308.209 296.921 325.948 296.921 347.719L296.921 349.129L295.51 349.129C295.308 349.129 295.308 349.129 295.107 349.129L293.897 349.129L293.897 347.92C293.897 326.351 276.36 308.613 254.791 308.613L253.381 308.209ZM295.308 276.159C291.68 291.076 279.787 302.969 265.072 306.799C279.988 310.629 291.68 322.521 295.308 337.438C298.937 322.521 310.628 310.629 325.545 306.799C310.83 302.969 299.138 291.076 295.308 276.159Z" fill="#798BA1"/>
</g>
<defs>
<clipPath id="clip0_239_579">
<rect width="614" height="614" fill="white" transform="translate(614) rotate(90)"/>
</clipPath>
</defs>
</svg>
